<?xml version="1.0" ?><svg style="enable-background:new 0 0 476 702.236;" version="1.1" viewBox="0 0 476 702.236" xml:space="preserve" xmlns="http://www.w3.org/2000/svg" xmlns:xlink="http://www.w3.org/1999/xlink"><g id="customer_x5F_service_x5F_support_x5F_online_x5F_chat_x5F_help_x5F_mobile_x5F_device"><g><ellipse cx="321.803" cy="309.099" rx="25.817" ry="31.981" style="fill:#666666;"/><ellipse cx="155.355" cy="309.099" rx="25.817" ry="31.981" style="fill:#666666;"/><path d="M227.958,410.511h27.851c7.176,0,13.869-3.208,18.363-8.803c4.494-5.594,6.185-12.822,4.638-19.829    l-16.778-76.012c-1.785-8.091-9.8-13.202-17.881-11.415c-8.089,1.786-13.199,9.791-11.414,17.881l15.049,68.178h-19.827    c-8.284,0-15,6.716-15,15S219.674,410.511,227.958,410.511z" style="fill:#666666;"/><path d="M155.354,394.816c-8.284,0-15,6.716-15,15c0,39.824,32.399,72.223,72.223,72.223h15.381    c8.284,0,15-6.716,15-15s-6.716-15-15-15h-15.381c-23.281,0-42.223-18.941-42.223-42.223    C170.354,401.532,163.639,394.816,155.354,394.816z" style="fill:#666666;"/><path d="M130.311,152.381c0,8.82,2.275,17.115,6.255,24.344c0.399,1.234,1.075,2.343,1.953,3.259    c8.84,13.547,23.978,22.628,41.229,23.035v19.586v0.729c0,7.38,4.064,14.16,10.573,17.639c2.954,1.579,6.193,2.361,9.426,2.361    c3.888,0,7.764-1.132,11.114-3.372l55.256-36.929h62.077c17.082,0,32.204-8.508,41.383-21.499h20.577v381.089H85.845V181.534    H96.72c-0.372-2.417-0.566-4.892-0.566-7.411v-22.589H55.845v441.089h364.31V151.534h-41.308v-42.728h40.71    c9.066,0,16.443,7.376,16.443,16.443v520.543c0,9.067-7.377,16.443-16.443,16.443H56.443c-9.066,0-16.443-7.376-16.443-16.443    V125.249c0-9.067,7.377-16.443,16.443-16.443h39.71v-40h-39.71C25.32,68.806,0,94.126,0,125.249v520.543    c0,31.123,25.32,56.443,56.443,56.443h363.113c31.123,0,56.443-25.32,56.443-56.443V125.249c0-31.123-25.32-56.443-56.443-56.443    h-40.71V50.652C378.847,22.723,356.124,0,328.194,0H180.963c-19.419,0-36.312,10.991-44.81,27.074    c-3.724,7.048-5.843,15.069-5.843,23.579V152.381z M180.963,40h147.231c5.874,0,10.652,4.779,10.652,10.652v101.729    c0,5.874-4.778,10.652-10.652,10.652h-68.146c-3.956,0-7.824,1.173-11.113,3.372l-29.188,19.507v-2.879c0-11.046-8.954-20-20-20    h-18.785c-5.874,0-10.652-4.779-10.652-10.652V50.652C170.311,44.779,175.089,40,180.963,40z" style="fill:#666666;"/><path d="M206.163,86.667c0,35.12,48.416,57.394,48.416,57.394s48.417-22.274,48.417-57.394    c0-15.575-12.626-28.201-28.202-28.201c-7.93,0-15.091,5.002-20.215,10.271c-5.124-5.269-12.285-10.271-20.215-10.271    C218.789,58.465,206.163,71.092,206.163,86.667z" style="fill:#666666;"/><path d="M201.646,640.433h72.71c8.284,0,15-6.716,15-15s-6.716-15-15-15h-72.71c-8.284,0-15,6.716-15,15    S193.361,640.433,201.646,640.433z" style="fill:#666666;"/></g></g><g id="Layer_1"/></svg>